<svg xmlns="http://www.w3.org/2000/svg" viewBox="0 0 64 64"><path fill="#4285F4" d="M58.2 32.7c0-2.1-.2-4.1-.5-6H32v11.4h14.7c-.6 3.4-2.6 6.3-5.5 8.2v6.8h8.9c5.2-4.8 8.1-11.8 8.1-20.4z"/><path fill="#34A853" d="M32 59c7.3 0 13.5-2.4 18.1-6.6l-8.9-6.8c-2.5 1.7-5.7 2.7-9.2 2.7-7.1 0-13.1-4.8-15.2-11.2H7.6v7C12.1 52.9 21.3 59 32 59z"/><path fill="#FBBC05" d="M16.8 37.1c-.5-1.7-.8-3.4-.8-5.1s.3-3.5.8-5.1v-7H7.6A26.9 26.9 0 0 0 5 32c0 4.4 1.1 8.5 2.6 12.1l9.2-7z"/><path fill="#EA4335" d="M32 15.7c4 0 7.6 1.4 10.4 4.1l7.8-7.8C45.5 7.6 39.3 5 32 5 21.3 5 12.1 11.1 7.6 19.9l9.2 7C18.9 20.5 24.9 15.7 32 15.7z"/></svg>